<?xml version="1.0" standalone="no"?>
<!DOCTYPE svg PUBLIC "-//W3C//DTD SVG 20010904//EN"
 "http://www.w3.org/TR/2001/REC-SVG-20010904/DTD/svg10.dtd">
<svg version="1.0" xmlns="http://www.w3.org/2000/svg"
 width="400.000000pt" height="400.000000pt" viewBox="0 0 400.000000 400.000000"
 preserveAspectRatio="xMidYMid meet">
<metadata>
Created by potrace 1.14, written by Peter Selinger 2001-2017
</metadata>
<g transform="translate(0.000000,400.000000) scale(0.100000,-0.100000)"
fill="#000000" stroke="none">
<path d="M1617 3384 c-4 -38 -7 -87 -7 -109 0 -25 -3 -35 -9 -27 -5 9 -37 14
-99 15 -63 1 -93 6 -97 15 -2 6 -10 12 -17 12 -9 0 -9 -3 2 -11 11 -8 12 -12
2 -16 -6 -2 -10 -9 -6 -14 9 -15 -44 -10 -60 6 -8 8 -22 15 -30 15 -20 0 -20
14 -1 30 8 7 12 17 8 23 -4 7 0 8 13 3 14 -5 16 -4 8 4 -15 15 -44 2 -37 -16
3 -9 0 -14 -6 -12 -7 2 -24 -13 -38 -32 l-25 -35 27 30 c26 29 27 29 20 5 -4
-17 -3 -21 3 -11 7 10 9 4 8 -20 -1 -27 -6 -34 -23 -35 -13 -1 -19 4 -17 11 3
6 -2 12 -10 12 -33 0 -57 -158 -35 -235 17 -64 48 -124 59 -117 5 3 7 0 4 -8
-8 -23 98 -113 162 -136 31 -12 89 -24 130 -28 l74 -6 0 -1055 c0 -580 2
-1057 4 -1059 5 -5 117 67 127 81 4 5 12 5 19 1 8 -5 11 -4 7 2 -3 5 10 25 31
44 20 19 29 24 19 13 -10 -12 -19 -31 -22 -43 -2 -11 -6 -25 -9 -29 -2 -4 4
-9 15 -9 11 -1 17 2 14 7 -3 6 1 7 9 4 17 -7 67 18 121 60 101 79 146 163 153
281 5 106 -14 185 -83 336 -50 111 -55 128 -55 193 0 204 67 365 209 507 106
105 192 159 471 292 121 58 164 84 193 116 54 59 49 94 -16 138 -62 41 -217
84 -352 97 -33 3 -78 9 -99 12 -31 6 -37 4 -31 -6 5 -9 4 -11 -3 -6 -25 15 -9
35 81 98 125 89 287 183 470 274 242 121 317 178 317 239 0 35 -27 59 -96 84
-153 58 -332 72 -960 78 l-531 5 -6 -68z m368 -54 c3 -5 23 -10 45 -10 43 0
209 -32 289 -55 54 -17 121 -71 121 -98 0 -8 -9 -22 -20 -32 -11 -10 -20 -24
-20 -31 0 -7 -16 -22 -35 -34 -19 -12 -35 -26 -35 -31 0 -5 -7 -12 -15 -15
-33 -13 -244 -239 -258 -276 -4 -12 -10 -24 -12 -26 -2 -3 -99 -7 -215 -9
l-210 -4 0 240 c0 235 3 276 21 265 5 -3 9 5 10 18 0 13 3 18 5 11 3 -7 12 -9
20 -6 8 3 14 0 14 -6 0 -16 52 -5 66 14 6 8 30 16 55 17 24 2 61 13 81 26 20
12 42 21 49 20 7 -2 14 3 15 10 1 6 2 14 3 17 2 9 20 5 26 -5z m-788 -252 c-3
-8 -6 -5 -6 6 -1 11 2 17 5 13 3 -3 4 -12 1 -19z"/>
<path d="M1349 3373 c-13 -16 -12 -17 4 -4 9 7 17 15 17 17 0 8 -8 3 -21 -13z"/>
<path d="M1255 3220 c-3 -5 -1 -10 4 -10 6 0 11 5 11 10 0 6 -2 10 -4 10 -3 0
-8 -4 -11 -10z"/>
</g>
</svg>
